<?xml version="1.0" standalone="no"?>
<!DOCTYPE svg PUBLIC "-//W3C//DTD SVG 20010904//EN"
 "http://www.w3.org/TR/2001/REC-SVG-20010904/DTD/svg10.dtd">
<svg version="1.0" xmlns="http://www.w3.org/2000/svg"
 width="717.000000pt" height="717.000000pt" viewBox="0 0 717.000000 717.000000"
 preserveAspectRatio="xMidYMid meet">
<metadata>
Created by potrace 1.11, written by Peter Selinger 2001-2013
</metadata>
<g transform="translate(0.000000,717.000000) scale(0.100000,-0.100000)"
fill="#000000" stroke="none">
<path d="M0 4994 l0 -1675 47 7 c67 10 88 19 154 67 31 23 86 63 122 88 110
77 172 163 212 292 15 48 17 78 12 180 -6 118 -11 144 -57 292 -35 114 -40
141 -45 248 -5 129 5 167 60 226 35 37 62 54 130 80 79 31 92 33 168 29 165
-11 388 -101 465 -189 40 -46 102 -171 122 -249 7 -25 20 -71 31 -102 21 -63
25 -171 9 -240 -5 -24 -17 -81 -26 -128 -9 -47 -20 -103 -24 -125 -5 -22 -16
-78 -25 -125 -9 -47 -34 -155 -56 -240 -22 -85 -43 -171 -48 -190 -4 -19 -14
-48 -23 -65 -8 -16 -21 -52 -27 -80 -17 -66 -53 -135 -116 -220 -59 -79 -69
-89 -142 -138 -61 -41 -132 -67 -184 -67 -21 0 -50 -5 -66 -11 -33 -13 -227
-28 -403 -32 -77 -2 -157 -10 -207 -22 l-83 -18 0 -45 0 -45 48 6 c26 3 83 12
127 20 44 8 118 18 165 21 47 4 121 11 165 16 44 5 118 14 165 19 70 8 265 9
452 2 33 -1 68 -21 68 -40 0 -4 -84 -8 -187 -8 -104 -1 -269 -7 -368 -13 -99
-7 -238 -13 -310 -14 -82 -2 -158 -9 -205 -20 -41 -10 -85 -20 -97 -23 l-23
-5 0 -979 0 -979 3585 0 3585 0 0 308 -1 307 -22 -37 c-24 -38 -101 -112 -214
-205 -151 -125 -395 -137 -607 -31 -92 46 -136 88 -190 180 -27 45 -57 95 -68
111 -10 15 -71 105 -134 200 -64 94 -124 178 -133 185 -32 26 -231 -5 -293
-45 -85 -55 -211 -162 -240 -203 -10 -14 -32 -45 -49 -70 -18 -25 -43 -60 -55
-78 -28 -41 -122 -115 -189 -149 -27 -14 -88 -39 -135 -56 -80 -28 -96 -30
-267 -35 -144 -3 -200 0 -265 13 -46 9 -87 20 -91 24 -5 5 11 16 33 25 37 15
53 15 121 5 46 -6 138 -9 221 -6 129 4 152 8 233 37 176 63 241 112 350 263
86 120 178 205 298 279 57 34 81 42 145 49 42 5 100 11 127 15 87 10 91 7 241
-229 27 -42 70 -107 97 -144 26 -36 47 -70 47 -76 0 -22 109 -173 146 -202 66
-52 86 -61 184 -88 139 -38 208 -40 300 -8 83 29 108 44 227 143 57 47 99 93
133 145 l50 76 0 371 c0 342 -2 373 -18 399 -10 15 -65 77 -122 138 -95 102
-277 251 -449 369 -29 19 -73 51 -100 71 -26 20 -62 44 -79 53 -17 9 -35 22
-39 30 -4 7 -24 22 -45 32 -49 26 -133 99 -179 157 -31 38 -39 57 -39 89 l0
40 25 -23 c13 -13 25 -31 25 -39 1 -25 153 -169 215 -204 30 -17 84 -53 120
-80 51 -39 116 -85 180 -129 39 -25 84 -58 100 -71 17 -14 39 -32 50 -40 77
-58 131 -106 236 -209 l119 -118 0 819 0 820 -37 77 c-32 68 -37 89 -41 174
-9 157 -6 189 21 230 61 92 57 71 57 342 0 200 -3 249 -12 242 -17 -12 -81
-36 -193 -70 -81 -25 -105 -27 -235 -27 l-145 0 -109 43 c-167 64 -167 64
-256 153 -94 93 -131 146 -167 236 -19 48 -46 114 -59 147 -25 61 -69 221 -80
291 -3 22 -7 41 -9 44 -2 3 -6 23 -9 45 -3 22 -8 58 -12 80 -8 58 -14 138 -19
236 -3 76 -7 124 -19 219 -7 59 -80 254 -110 293 -35 47 -120 102 -181 118
-22 6 -67 8 -100 5 -68 -7 -179 -41 -192 -59 -5 -7 -20 -49 -32 -94 -27 -94
-23 -146 11 -164 12 -6 46 -31 75 -55 30 -25 62 -50 71 -57 52 -39 146 -150
176 -206 118 -226 153 -409 106 -547 -26 -73 -53 -103 -160 -167 -47 -28 -120
-81 -163 -117 l-78 -65 5 -65 c3 -36 13 -89 21 -117 27 -90 210 -347 292 -409
56 -42 62 -47 85 -68 11 -10 96 -56 187 -102 164 -83 342 -189 433 -258 61
-46 130 -133 171 -216 31 -62 32 -70 31 -180 0 -104 -3 -120 -26 -166 -46 -89
-127 -146 -248 -175 -97 -23 -100 -23 -100 -5 0 15 35 24 120 32 84 8 139 53
190 157 28 57 30 68 26 147 -5 102 -27 166 -89 253 -54 76 -114 125 -262 216
-136 84 -364 201 -390 201 -4 0 -32 19 -63 43 -32 24 -80 61 -109 82 -76 56
-174 192 -208 290 -15 44 -50 131 -78 193 -64 147 -63 157 40 249 42 37 91 77
109 88 18 11 57 35 87 52 76 46 100 74 120 136 32 103 22 174 -57 391 -43 119
-109 204 -241 310 -49 40 -100 78 -111 84 -29 15 -54 71 -54 121 0 70 46 213
78 238 41 34 137 63 229 70 70 5 91 3 145 -17 79 -30 163 -82 179 -112 6 -13
19 -32 29 -43 33 -38 95 -249 109 -375 6 -47 13 -141 16 -210 14 -285 58 -482
167 -745 43 -105 131 -217 234 -296 39 -30 54 -48 51 -60 -5 -20 35 -35 170
-64 127 -27 212 -20 403 32 117 32 158 49 187 75 l23 21 -1 924 0 923 -3584 0
-3585 0 0 -1676z m3880 1096 c284 -58 547 -203 788 -434 187 -180 332 -377
462 -629 180 -346 291 -726 342 -1172 19 -167 16 -617 -5 -795 -49 -403 -156
-767 -321 -1095 -138 -273 -280 -470 -478 -660 -240 -232 -489 -370 -789 -437
-148 -33 -398 -33 -548 1 -294 65 -546 203 -784 430 -440 422 -722 1050 -807
1796 -30 267 -22 640 21 925 170 1133 845 1975 1674 2089 108 15 324 6 445
-19z m-1120 -160 l45 0 -36 -24 c-29 -20 -57 -27 -145 -36 -60 -5 -143 -15
-184 -20 -41 -5 -104 -12 -140 -16 -58 -5 -164 -26 -355 -68 -113 -26 -244
-66 -279 -86 -34 -21 -34 -22 -41 -106 -10 -114 1 -601 14 -687 18 -111 44
-159 125 -229 39 -34 73 -63 74 -64 7 -4 -9 -44 -18 -44 -17 0 -169 157 -188
195 -42 87 -52 195 -52 585 -1 267 9 373 34 399 18 17 87 37 166 46 72 9 143
32 184 60 37 25 129 57 226 79 40 9 127 15 224 15 88 1 162 4 165 7 4 4 35 3
71 0 36 -3 85 -6 110 -6z m2763 -1775 c14 -28 37 -102 51 -165 14 -63 33 -145
42 -182 18 -74 15 -142 -13 -313 -12 -73 -23 -108 -40 -128 l-23 -29 0 54 c0
29 7 81 15 114 14 61 23 273 12 290 -3 5 -8 30 -12 54 -8 56 -52 236 -64 258
-5 10 -12 35 -15 57 -4 22 -10 51 -13 65 l-6 25 20 -25 c11 -14 32 -48 46 -75z
m543 -851 c13 -14 30 -50 40 -80 18 -57 18 -53 -17 -244 -4 -25 -8 -66 -8 -92
-1 -35 -5 -48 -16 -48 -24 0 -35 35 -35 108 0 67 -16 139 -28 127 -4 -3 -6
-50 -7 -103 0 -79 -3 -97 -15 -97 -17 0 -36 71 -46 168 -8 84 -29 75 -43 -18
-6 -42 -11 -97 -11 -123 -1 -44 -2 -46 -16 -27 -12 16 -14 37 -8 113 5 78 4
92 -9 92 -18 0 -23 -12 -32 -72 -7 -49 -42 -119 -62 -126 -10 -3 -13 13 -13
57 0 64 12 103 44 138 29 34 11 40 -40 13 -38 -21 -58 -25 -132 -25 -83 0 -87
1 -90 23 -2 12 2 22 8 22 31 0 171 66 218 103 159 126 140 116 222 116 68 1
76 -1 96 -25z m-248 -460 c19 -4 34 -14 38 -26 3 -11 12 -17 20 -14 8 3 21 -6
31 -22 9 -15 30 -42 46 -61 16 -18 35 -47 42 -65 65 -145 74 -174 80 -262 9
-116 -1 -149 -65 -206 -95 -84 -98 -86 -250 -143 -20 -7 -69 -29 -109 -50 -40
-20 -103 -47 -140 -60 -36 -13 -104 -38 -151 -55 -47 -18 -122 -45 -167 -60
l-83 -29 23 40 c12 21 31 42 42 45 98 31 390 141 443 168 37 18 105 49 152 67
90 35 177 88 223 136 24 26 27 37 28 99 0 95 -6 127 -43 221 -28 75 -58 121
-133 207 l-25 29 -87 -7 c-105 -9 -139 -22 -192 -75 -66 -66 -71 -82 -56 -182
7 -47 18 -102 25 -123 6 -21 10 -40 7 -42 -6 -6 -47 100 -47 119 0 7 -5 18
-12 25 -7 7 -12 41 -12 80 -1 64 2 73 39 127 22 33 56 68 74 79 53 31 195 53
259 40z m-4360 -101 c20 -16 64 -50 96 -76 58 -48 130 -85 208 -109 31 -9 38
-16 36 -32 -3 -19 -10 -21 -90 -21 -74 0 -94 4 -132 25 -51 27 -69 21 -40 -13
32 -35 44 -74 44 -138 0 -44 -3 -60 -12 -57 -21 7 -56 77 -63 126 -9 60 -14
72 -32 72 -13 0 -14 -14 -9 -92 6 -76 4 -97 -8 -113 -14 -19 -15 -17 -16 27 0
26 -5 81 -11 123 -14 93 -35 102 -43 18 -10 -97 -29 -168 -46 -168 -12 0 -15
18 -15 97 -1 53 -3 100 -7 103 -12 12 -28 -60 -28 -127 0 -73 -11 -108 -35
-108 -11 0 -15 13 -16 48 0 26 -4 67 -8 92 -35 190 -35 187 -17 243 9 30 26
66 38 80 20 25 28 27 96 27 64 0 78 -3 110 -27z m556 -843 c-7 -57 12 -214 30
-249 22 -42 46 -57 136 -86 82 -25 109 -44 140 -97 16 -28 -255 68 -286 101
-33 34 -62 90 -69 132 -3 19 -8 49 -11 67 -4 18 -1 85 7 148 l12 116 24 -43
c18 -34 22 -54 17 -89z"/>
<path d="M2788 4291 c-110 -36 -161 -163 -99 -249 38 -53 87 -77 161 -77 76 1
117 19 156 70 80 105 4 249 -137 260 -29 3 -66 1 -81 -4z"/>
<path d="M4615 4112 c-11 -2 -24 -8 -29 -13 -6 -5 -18 -9 -28 -9 -25 0 -89
-59 -104 -97 -18 -42 -18 -83 1 -109 8 -12 12 -24 9 -26 -2 -3 13 -21 35 -41
76 -68 216 -85 310 -38 42 22 105 87 96 101 -3 5 -1 11 5 15 5 3 10 20 10 36
0 122 -149 210 -305 181z"/>
<path d="M1949 3828 c-17 -31 -5 -123 31 -252 17 -59 37 -156 45 -215 8 -58
21 -137 30 -176 8 -38 15 -92 15 -120 0 -32 16 -97 44 -180 24 -71 47 -146 50
-165 28 -142 56 -231 109 -345 142 -312 198 -439 232 -531 52 -140 99 -238
139 -293 19 -26 88 -94 153 -151 65 -57 147 -132 183 -166 42 -39 101 -80 165
-114 94 -49 105 -53 187 -58 89 -5 227 8 358 33 41 8 113 19 160 26 47 6 112
22 145 36 33 13 88 35 123 48 155 58 287 191 437 440 114 190 130 224 184 400
72 235 78 260 96 370 11 63 27 120 45 155 32 64 108 256 138 350 23 70 37 147
47 250 12 125 35 316 56 463 17 114 19 154 11 173 -14 29 -56 33 -71 7 -12
-23 -43 -244 -76 -533 -15 -124 -30 -243 -35 -265 -21 -90 -107 -320 -159
-423 -19 -37 -34 -89 -42 -143 -13 -94 -46 -216 -112 -427 -40 -126 -57 -162
-146 -311 -154 -257 -260 -368 -401 -419 -30 -11 -82 -32 -114 -45 -33 -14
-98 -31 -145 -37 -47 -6 -120 -18 -161 -26 -128 -23 -270 -37 -339 -32 -106 8
-211 71 -396 238 -257 232 -241 210 -361 515 -25 66 -78 188 -116 270 -141
304 -166 367 -189 480 -12 60 -40 161 -61 225 -27 78 -42 145 -49 210 -5 52
-13 108 -19 125 -5 16 -16 82 -24 145 -8 64 -29 165 -46 225 -17 61 -33 137
-37 170 -3 33 -10 68 -15 78 -12 24 -55 22 -69 -5z"/>
<path d="M2438 5883 c7 -3 16 -2 19 1 4 3 -2 6 -13 5 -11 0 -14 -3 -6 -6z"/>
<path d="M2235 5874 c-58 -12 -145 -37 -142 -41 3 -2 35 3 73 12 38 8 112 19
164 24 l95 8 -85 0 c-47 1 -94 -1 -105 -3z"/>
<path d="M1640 5703 c0 -7 4 -13 8 -13 5 0 16 6 25 13 16 11 15 12 -8 12 -14
0 -25 -6 -25 -12z"/>
<path d="M655 4744 c-33 -14 -80 -46 -105 -70 l-45 -44 1 -118 c1 -112 3 -123
49 -262 l48 -145 1 -180 c1 -177 1 -181 -27 -240 -35 -74 -86 -152 -124 -186
-15 -15 -66 -52 -113 -84 -47 -32 -98 -69 -115 -83 -42 -36 -101 -59 -167 -67
l-58 -7 0 -309 c0 -275 2 -309 16 -309 8 0 68 9 132 21 64 11 149 20 187 19
175 -3 404 26 516 65 92 32 235 184 275 293 9 26 27 74 40 107 44 115 108 358
129 495 4 25 17 92 30 150 66 296 72 399 30 530 -41 130 -94 241 -134 283 -72
77 -281 157 -426 164 -69 3 -88 0 -140 -23z"/>
<path d="M7154 4108 c-9 -14 -5 -174 6 -238 5 -32 8 -2 9 103 0 81 -1 147 -3
147 -3 0 -8 -5 -12 -12z"/>
<path d="M368 2513 c6 -2 18 -2 25 0 6 3 1 5 -13 5 -14 0 -19 -2 -12 -5z"/>
</g>
</svg>
